<svg xmlns="http://www.w3.org/2000/svg" xmlns:xlink="http://www.w3.org/1999/xlink" width="916.924" height="271.682" viewBox="0 0 916.924 271.682">
  <defs>
    <linearGradient id="linear-gradient" x1="0.5" y1="-0.003" x2="0.5" y2="0.993" gradientUnits="objectBoundingBox">
      <stop offset="0" stop-color="#267caf"/>
      <stop offset="0.286" stop-color="#4a92b4"/>
      <stop offset="0.767" stop-color="#79bcba"/>
      <stop offset="1" stop-color="#88cebc"/>
    </linearGradient>
    <linearGradient id="linear-gradient-2" x1="0.638" y1="0.141" x2="0.339" y2="0.948" gradientUnits="objectBoundingBox">
      <stop offset="0" stop-color="#f48879"/>
      <stop offset="0.119" stop-color="#f5907a"/>
      <stop offset="0.713" stop-color="#fbb777"/>
      <stop offset="1" stop-color="#fdc874"/>
    </linearGradient>
    <linearGradient id="linear-gradient-3" x1="0.866" y1="0.172" x2="0.048" y2="1.029" gradientUnits="objectBoundingBox">
      <stop offset="0" stop-color="#eb413d"/>
      <stop offset="0.167" stop-color="#d94452"/>
      <stop offset="0.575" stop-color="#af487a"/>
      <stop offset="0.862" stop-color="#954b92"/>
      <stop offset="1" stop-color="#894a9c"/>
    </linearGradient>
    <linearGradient id="linear-gradient-4" x1="0.106" y1="0.073" x2="0.888" y2="0.85" gradientUnits="objectBoundingBox">
      <stop offset="0" stop-color="#54c0ac"/>
      <stop offset="1" stop-color="#dde79a"/>
    </linearGradient>
  </defs>
  <g id="Group_6" data-name="Group 6" transform="translate(-151.745 -298.556)">
    <path id="Path_8" data-name="Path 8" d="M1062.587,538.164a26.024,26.024,0,0,1-26.027,26.02H183.882a26.058,26.058,0,0,1-26.089-26.02V330.657A26.093,26.093,0,0,1,183.882,304.6h852.644a26.051,26.051,0,0,1,26.054,26.048v.006l.007,207.507Z" fill="#fff"/>
    <path id="Path_9" data-name="Path 9" d="M1036.532,570.238H183.882a32.14,32.14,0,0,1-32.137-32.074v-207.5a32.16,32.16,0,0,1,32.137-32.108h852.644a32.174,32.174,0,0,1,32.137,32.108v207.5a32.136,32.136,0,0,1-32.131,32.074Z" fill="#a6a5a5"/>
    <path id="Path_10" data-name="Path 10" d="M1062.587,538.164a26.024,26.024,0,0,1-26.027,26.02H183.882a26.058,26.058,0,0,1-26.089-26.02V330.657A26.093,26.093,0,0,1,183.882,304.6h852.644a26.051,26.051,0,0,1,26.054,26.048v.006l.007,207.507Z" fill="#010101"/>
    <path id="Path_11" data-name="Path 11" d="M1036.532,298.556h-456.7L758.71,570.238h277.822a32.159,32.159,0,0,0,32.137-32.095V330.664A32.167,32.167,0,0,0,1036.532,298.556Z" fill="#fff" opacity="0.1"/>
    <g id="Group_5" data-name="Group 5">
      <path id="Path_12" data-name="Path 12" d="M475.741,380.686c0,5.312-1.329,9.961-4.649,13.282a20.662,20.662,0,1,1-14.61-35.2,17.689,17.689,0,0,1,7.969,1.993c2.656,1.328,4.649,2.656,5.977,4.648l-3.321,3.321c-2.656-3.321-5.977-4.649-10.625-4.649a13.213,13.213,0,0,0-10.626,4.649c-3.32,2.656-4.649,6.641-4.649,11.29s1.329,8.633,4.649,11.289,6.641,4.649,10.626,4.649a14.563,14.563,0,0,0,11.289-4.649,10.994,10.994,0,0,0,3.321-7.969h-14.61v-5.313h19.259v2.657Zm30.548-16.6H488.358V376.7h16.6v4.649h-16.6v12.618h17.931v5.312H483.046V359.435h23.243Zm21.915,35.2h-5.313v-35.2H511.6v-4.648h27.892v4.648H528.2Zm30.549,0V359.435h5.312V399.28Zm27.892,0h-5.313v-35.2h-11.29v-4.648H597.27v4.648H585.981v35.2Zm63.089-5.312a20.846,20.846,0,1,1,5.977-14.611A19.528,19.528,0,0,1,649.734,393.968ZM624.5,390.647a15.675,15.675,0,0,0,10.626,4.649,13.211,13.211,0,0,0,10.625-4.649,16.019,16.019,0,0,0,4.649-11.29c0-4.648-1.328-8.633-4.649-11.289a15.669,15.669,0,0,0-10.625-4.649,13.213,13.213,0,0,0-10.626,4.649,16.022,16.022,0,0,0-4.648,11.289C619.85,384.006,621.178,387.991,624.5,390.647Zm38.518,8.633V359.435h5.977l19.259,31.212V359.435h5.312V399.28h-5.312l-20.587-32.54v32.54Z" fill="#fff"/>
      <path id="Path_13" data-name="Path 13" d="M613.209,449.083c-15.939,0-28.557,11.954-28.557,28.556A28.345,28.345,0,0,0,613.209,506.2c15.938,0,28.556-11.953,28.556-28.556C641.765,460.373,629.147,449.083,613.209,449.083Zm0,45.159c-8.634,0-15.939-7.3-15.939-17.267s7.3-17.266,15.939-17.266,15.938,6.641,15.938,17.266C629.147,486.937,621.842,494.242,613.209,494.242Zm-61.761-45.159c-15.939,0-28.557,11.954-28.557,28.556A28.345,28.345,0,0,0,551.448,506.2c15.938,0,28.556-11.953,28.556-28.556C580,460.373,567.386,449.083,551.448,449.083Zm0,45.159c-8.634,0-15.939-7.3-15.939-17.267s7.305-17.266,15.939-17.266,15.938,6.641,15.938,17.266C567.386,486.937,560.081,494.242,551.448,494.242Zm-73.715-36.526V469.67h28.556c-.664,6.641-3.321,11.954-6.641,15.274-3.985,3.985-10.626,8.633-21.915,8.633-17.931,0-31.213-13.946-31.213-31.876s13.946-31.877,31.213-31.877a32.932,32.932,0,0,1,21.915,8.633l8.633-8.633c-7.3-6.641-16.6-11.954-29.884-11.954-23.908,0-44.495,19.923-44.495,43.831s20.587,43.83,44.495,43.83c13.282,0,22.579-3.984,30.548-12.618,7.969-7.969,10.626-19.258,10.626-27.892a24.907,24.907,0,0,0-.664-7.3Zm301.5,9.3c-2.657-6.641-9.3-17.931-23.908-17.931s-26.564,11.29-26.564,28.556c0,15.938,11.954,28.556,27.892,28.556,12.618,0,20.587-7.969,23.244-12.618l-9.3-6.64c-3.32,4.648-7.3,7.969-13.946,7.969s-10.625-2.657-13.946-8.634l37.854-15.938-1.328-3.32Zm-38.518,9.3c0-10.626,8.633-16.6,14.61-16.6,4.649,0,9.3,2.656,10.626,5.976l-25.236,10.626ZM709.5,503.539H722.12V420.527H709.5ZM689.58,455.06a21.867,21.867,0,0,0-15.275-6.641c-13.946,0-27.228,12.618-27.228,28.556A27.5,27.5,0,0,0,674.3,504.867a19.07,19.07,0,0,0,14.611-6.641h.664v3.985c0,10.625-5.977,16.6-15.275,16.6a14.755,14.755,0,0,1-13.946-9.961L649.734,513.5c3.32,7.3,11.289,16.6,25.236,16.6,14.61,0,26.563-8.633,26.563-29.22V450.411H689.58v4.649Zm-14.61,39.182c-8.634,0-15.939-7.3-15.939-17.267s7.3-17.266,15.939-17.266,15.274,7.3,15.274,17.266S683.6,494.242,674.97,494.242Zm162.039-73.715H807.125v83.012h12.618V472.326h17.266c13.946,0,27.228-9.961,27.228-25.9S850.955,420.527,837.009,420.527Zm.664,39.846h-17.93V431.816h17.93a14.587,14.587,0,0,1,14.61,13.947c-.664,7.3-5.976,14.61-14.61,14.61Zm76.371-11.954c-9.3,0-18.594,3.984-21.915,12.618l11.29,4.648c2.656-4.648,6.641-5.976,11.29-5.976,6.64,0,12.617,3.984,13.281,10.625V471a26.343,26.343,0,0,0-12.617-3.32c-11.954,0-23.908,6.641-23.908,18.594,0,11.29,9.962,18.6,20.587,18.6,8.633,0,12.618-3.984,15.938-7.969h.665v6.641h11.953V471.662c-1.328-14.61-12.618-23.243-26.564-23.243Zm-1.328,45.823c-3.984,0-9.961-1.993-9.961-7.3,0-6.641,7.3-8.634,13.282-8.634,5.313,0,7.969,1.328,11.289,2.657C926,488.929,919.357,494.242,912.716,494.242Zm69.73-43.831L968.5,486.272h-.664l-14.61-35.861H939.944l21.916,50.472-12.618,27.892H961.86l33.868-78.364H982.446ZM870.878,503.539H883.5V420.527H870.878Z" fill="#fff"/>
      <g id="Group_4" data-name="Group 4">
        <path id="Path_14" data-name="Path 14" d="M250.427,353.686c-1.992,1.993-2.656,5.313-2.656,9.3V509.749a13.136,13.136,0,0,0,3.32,9.3l.664.665L334.1,437.363v-1.329Z" fill="url(#linear-gradient)"/>
        <path id="Path_15" data-name="Path 15" d="M360.667,465.255l-27.228-27.228v-1.993l27.228-27.228.664.664,32.541,18.6c9.3,5.313,9.3,13.946,0,19.259Z" fill="url(#linear-gradient-2)"/>
        <path id="Path_16" data-name="Path 16" d="M361.331,464.59,333.439,436.7l-83.012,83.013c3.321,3.32,7.969,3.32,13.946.664l96.958-55.785" fill="url(#linear-gradient-3)"/>
        <path id="Path_17" data-name="Path 17" d="M361.331,408.806l-96.958-55.12c-5.977-3.32-10.625-2.656-13.946.664L333.439,436.7l27.892-27.892Z" fill="url(#linear-gradient-4)"/>
      </g>
    </g>
  </g>
</svg>
